<svg
    xmlns="http://www.w3.org/2000/svg"
    width="253"
    height="253"
    fill="none"
    viewBox="0 -93 253 253"
>
    <path
        fill="#4c6a92"
        d="M44.084 40.947c8.027 4.692 14.153 8.318 20.068 11.73 2.112 1.28 4.225 2.346 6.126 3.839 2.746 1.919 6.548 4.052 4.436 8.104-2.112 3.839-6.126 2.132-9.083 1.066-3.169-.853-6.337-2.56-9.295-4.052-13.73-6.611-27.46-13.436-40.98-20.26-3.591-1.92-7.394-3.626-10.562-6.185-6.76-5.118-6.337-10.237 1.056-14.076 9.928-5.118 20.068-9.81 30.207-14.502C40.282 4.48 44.718 2.346 49.154.853 51.689 0 54.646.213 57.392 0c.845 5.971-2.535 7.251-5.492 8.744-7.393 4.052-14.998 7.89-22.391 11.943-2.535 1.493-5.281 2.986-7.816 6.398 3.802.426 7.393 1.066 11.196 1.28 28.517 1.492 56.823 2.985 85.34 4.478 41.403 2.133 82.595 4.265 123.998 6.611 3.38.214 6.759 1.493 10.773 2.56-3.802 5.758-8.238 4.478-11.829 4.265-20.279-.427-40.77-1.28-61.049-1.92l-131.18-4.478c-1.055.213-1.69.426-4.858 1.066z"
    ></path>
</svg>